PathFileType	4	(X/Y/Z)	C:\Users\xlb\Desktop\20210112\20210112\bx_n_10_901.trc
DataRate	CameraRate	NumFrames	NumMarkers	Units	OrigDataRate	OrigDataStartFrame	OrigNumFrames
50.00	50.00	       4	43	mm	50.00	454	       518
Frame#	Time	Top.Head			R.Acromium			L.Acromium			Sternum			R.ASIS			L.ASIS			V.Sacral			R.Thigh.Upper			R.Thigh.Front			R.Thigh.Rear			R.Knee.Lat			R.Knee.Med			R.Shank.Upper			R.Shank.Front			R.Shank.Rear			R.Ankle.Lat			R.Midfoot.Lat			R.Toe.Lat			R.Toe.Tip			R.Toe.Med			R.Ankle.Med			R.Midfoot.Sup			R.Heel			L.Thigh.Upper			L.Thigh.Front			L.Thigh.Rear			L.Knee.Lat			L.Knee.Med			L.Shank.Upper			L.Shank.Front			L.Shank.Rear			L.Ankle.Lat			L.Midfoot.Lat			L.Toe.Lat			L.Toe.Tip			L.Toe.Med			L.Ankle.Med			L.Midfoot.Sup			L.Heel			origin1 front left			origin2 front right			origin 3 back right			origin 4 back leftt			
		X1	Y1	Z1	X2	Y2	Z2	X3	Y3	Z3	X4	Y4	Z4	X5	Y5	Z5	X6	Y6	Z6	X7	Y7	Z7	X8	Y8	Z8	X9	Y9	Z9	X10	Y10	Z10	X11	Y11	Z11	X12	Y12	Z12	X13	Y13	Z13	X14	Y14	Z14	X15	Y15	Z15	X16	Y16	Z16	X17	Y17	Z17	X18	Y18	Z18	X19	Y19	Z19	X20	Y20	Z20	X21	Y21	Z21	X22	Y22	Z22	X23	Y23	Z23	X24	Y24	Z24	X25	Y25	Z25	X26	Y26	Z26	X27	Y27	Z27	X28	Y28	Z28	X29	Y29	Z29	X30	Y30	Z30	X31	Y31	Z31	X32	Y32	Z32	X33	Y33	Z33	X34	Y34	Z34	X35	Y35	Z35	X36	Y36	Z36	X37	Y37	Z37	X38	Y38	Z38	X39	Y39	Z39	X40	Y40	Z40	X41	Y41	Z41	X42	Y42	Z42	X43	Y43	Z43	

454	9.060	-730.66370	117.27742	1843.75696	-687.26135	-64.62563	1544.32031	-705.48749	293.78113	1532.68701	-583.97900	111.30038	1357.05969	-560.81348	-3.21160	1054.09351	-574.47046	245.59126	1063.32312	-767.56641	94.71674	1050.10754	-630.51044	-71.84120	871.93787	-560.70135	-2.18847	801.85175	-657.17633	-59.79755	758.86169	-687.17743	-32.45310	619.12250	-671.99438	75.86841	574.92438	-697.69904	-29.30711	569.66614	-646.70874	18.32296	518.39844	-745.83905	-39.89388	491.61539	-756.68237	-15.65881	208.20685	-649.33948	-68.31630	161.08434	-607.63489	-76.00996	157.27614	-547.15649	-30.30008	163.28058	-595.70087	24.78048	167.73711	-669.15723	53.90731	159.52208	-711.86615	72.15815	216.41705	-789.26514	44.23775	174.13139	-662.29974	286.52945	872.71490	-561.70062	216.74930	810.68451	-675.85632	271.04996	742.42975	-709.66895	251.62064	643.04376	-677.65424	144.87198	575.74854	-714.68689	248.00424	576.97821	-663.34064	206.53947	532.76447	-757.43683	257.83661	504.10629	-765.73981	227.14410	205.80615	-658.85083	298.19431	158.20866	-622.70142	307.03406	158.49818	-554.03711	256.88336	164.39223	-590.03369	219.15915	173.64967	-710.11676	153.06085	216.84766	-673.24048	172.02066	157.72623	-794.38928	178.07858	183.57607	-527.99847	304.39584	146.58678	-517.51837	-72.77235	143.13466	-875.95325	-78.79137	141.43420	-882.49268	296.12964	144.67279	
455	9.080	-730.50116	117.37244	1843.82764	-687.66382	-64.58984	1544.24854	-705.79449	293.89453	1532.57556	-584.24835	111.36998	1357.05554	-561.07025	-3.09863	1054.13171	-574.56635	245.61731	1063.31299	-767.73938	94.78373	1050.11108	-630.69012	-71.84309	871.93250	-560.92786	-2.20984	801.99048	-657.31934	-59.73808	758.79932	-687.25677	-32.46186	619.14453	-672.04968	75.87431	574.92285	-697.74646	-29.25485	569.62048	-646.76575	18.30679	518.42615	-745.88629	-39.88998	491.59686	-756.67621	-15.65205	208.17593	-649.32446	-68.30925	161.09920	-607.64148	-76.02471	157.28583	-547.14246	-30.30914	163.28813	-595.69214	24.77846	167.71684	-669.14484	53.89735	159.48851	-711.88599	72.18568	216.35539	-789.26801	44.24318	174.12822	-662.42987	286.48068	872.63879	-561.82837	216.72697	810.66925	-675.92249	271.09430	742.41833	-709.71820	251.61740	643.02417	-677.72125	144.90907	575.76257	-714.73560	248.00726	576.95636	-663.35016	206.53053	532.77924	-757.46960	257.86804	504.09561	-765.73877	227.16902	205.80737	-658.84033	298.17944	158.20074	-622.70288	307.04056	158.51991	-554.04022	256.85556	164.38887	-590.02258	219.17163	173.64973	-710.13330	153.05646	216.83336	-673.23846	172.01880	157.72353	-794.38751	178.08504	183.57419	-527.98138	304.38046	146.60655	-517.51941	-72.77699	143.12906	-875.96948	-78.78544	141.44565	-882.48486	296.11557	144.66679	
456	9.100	-730.36896	117.43434	1843.89343	-688.08783	-64.56376	1544.16956	-706.12018	294.00726	1532.48706	-584.54724	111.42316	1357.05237	-561.31812	-3.02397	1054.18042	-574.68677	245.63644	1063.31738	-767.91821	94.83390	1050.11011	-630.86224	-71.86033	871.93195	-561.15558	-2.24617	802.13635	-657.46497	-59.68509	758.73541	-687.31238	-32.47051	619.15729	-672.08728	75.87791	574.92694	-697.77020	-29.22453	569.60144	-646.78729	18.28218	518.45386	-745.90820	-39.87782	491.56918	-756.66730	-15.65224	208.14471	-649.31091	-68.30153	161.11530	-607.64575	-76.03898	157.29288	-547.12897	-30.32046	163.29907	-595.68646	24.77544	167.69975	-669.13373	53.88996	159.45715	-711.89972	72.20626	216.30832	-789.26953	44.24428	174.12781	-662.55292	286.42123	872.55664	-561.95789	216.69298	810.65198	-675.97638	271.14169	742.41553	-709.73987	251.61703	643.00055	-677.76611	144.92706	575.76746	-714.76917	248.01508	576.93115	-663.35309	206.52058	532.79169	-757.48828	257.89093	504.08630	-765.73645	227.19406	205.80844	-658.82855	298.15945	158.19576	-622.70447	307.04153	158.54138	-554.04242	256.83023	164.38492	-590.01306	219.17790	173.64717	-710.15228	153.04831	216.81744	-673.23291	172.02037	157.72292	-794.38843	178.09108	183.57196	-527.96588	304.35175	146.61990	-517.51831	-72.77795	143.12453	-875.98090	-78.77637	141.44884	-882.47473	296.10452	144.66539	
457	9.120	-730.26740	117.47119	1843.95715	-688.52618	-64.54227	1544.08655	-706.45844	294.11310	1532.42834	-584.87860	111.45314	1357.04663	-561.55389	-3.00480	1054.23572	-574.83362	245.65154	1063.33679	-768.10278	94.86913	1050.10168	-631.02948	-71.89001	871.93152	-561.37433	-2.29204	802.27954	-657.61151	-59.64262	758.67871	-687.34192	-32.47440	619.16010	-672.09528	75.88311	574.93433	-697.75970	-29.21833	569.61511	-646.77380	18.26006	518.47174	-745.89948	-39.85532	491.53195	-756.65662	-15.65900	208.11711	-649.29956	-68.29283	161.13217	-607.64679	-76.04952	157.29721	-547.11578	-30.33397	163.31093	-595.68213	24.77096	167.68806	-669.12524	53.88686	159.43204	-711.90411	72.22411	216.27861	-789.26849	44.24147	174.13029	-662.66656	286.35526	872.47211	-562.08270	216.64885	810.64185	-676.01813	271.18365	742.42010	-709.73792	251.61754	642.97412	-677.78662	144.92737	575.76642	-714.78497	248.02818	576.90570	-663.35120	206.51146	532.80164	-757.49274	257.90674	504.07785	-765.73395	227.21666	205.80791	-658.81616	298.13669	158.19501	-622.70526	307.03613	158.55911	-554.04272	256.81110	164.38144	-590.00702	219.17575	173.64215	-710.17163	153.03798	216.80243	-673.22388	172.02551	157.72473	-794.39178	178.09615	183.56966	-527.95410	304.31302	146.62486	-517.51520	-72.77524	143.12230	-875.98755	-78.76740	141.44505	-882.46405	296.09720	144.66789	
